<svg width="1128.6000000000001" height="342" viewbox = "0 0 1128.6000000000001 342"  xmlns="http://www.w3.org/2000/svg">
	<path d = "M77 77 L77 9 L9 9 L9 77 L77 77 Z" stroke = "#000000" stroke-width = "1" fill = "none" />	<path d = "M65 68 L65 20 L17 20 L17 68 L65 68 Z" stroke = "#000000" stroke-width = "1" fill = "none" /><circle cx="41" cy = "44" r = "24.183051916579927" stroke = "#000000" stroke-width = "1" fill = "none" />
    <line x1="41" y1="44" x2="41" y2="20" style="stroke:#000000;stroke-width:1" />
    <line x1="41" y1="44" x2="65" y2="44" style="stroke:#000000;stroke-width:1" />
    <line x1="41" y1="44" x2="41" y2="68" style="stroke:#000000;stroke-width:1" />
    <line x1="41" y1="44" x2="17" y2="44" style="stroke:#000000;stroke-width:1" />
<circle cx="33" cy = "36" r = "6.045762979144982" stroke = "#000000" stroke-width = "1" fill = "none" />
<circle cx="50" cy = "36" r = "6.045762979144982" stroke = "#000000" stroke-width = "1" fill = "none" />
<circle cx="50" cy = "53" r = "6.045762979144982" stroke = "#000000" stroke-width = "1" fill = "none" />
<circle cx="33" cy = "53" r = "6.045762979144982" stroke = "#000000" stroke-width = "1" fill = "none" />
	<path d = "M154 77 L154 9 L86 9 L85 77 L154 77 Z" stroke = "#000000" stroke-width = "1" fill = "none" />	<path d = "M142 68 L142 20 L94 20 L94 68 L142 68 Z" stroke = "#000000" stroke-width = "1" fill = "none" />	<path d = "M130 56 L130 32 L106 32 L106 56 L130 56 Z" stroke = "#000000" stroke-width = "1" fill = "none" />    <line x1="106" y1="56" x2="130" y2="32" style="stroke:#000000;stroke-width:1" />
  <path d="M106.14152595828995 22.108474041710103           A34.2 34.2 0 0 1 130.3245778748698 32.12542212513018" fill = "none" stroke = "#000000" stroke-width = "1" />
  <path d="M106.14152595828992 32.12542212513018           A24.183051916579927 24.183051916579927 0 0 1 123.24152595828986 39.208474041710105" fill = "none" stroke = "#000000" stroke-width = "1" />
  <path d="M106.1415259582899 39.208474041710105           A17.1 17.1 0 0 1 118.23305191657983 44.21694808342014" fill = "none" stroke = "#000000" stroke-width = "1" />
  <path d="M106.14152595828989 44.21694808342014           A12.091525958289964 12.091525958289964 0 0 1 114.69152595828986 47.7584740417101" fill = "none" stroke = "#000000" stroke-width = "1" />
  <path d="M106.14152595828989 47.7584740417101           A8.55 8.55 0 0 1 112.18728893743484 50.262711062565124" fill = "none" stroke = "#000000" stroke-width = "1" />
    <line x1="106" y1="56" x2="106" y2="22" style="stroke:#000000;stroke-width:1" />
	<path d = "M231 77 L231 9 L162 9 L162 77 L231 77 Z" stroke = "#000000" stroke-width = "1" fill = "none" />	<path d = "M219 68 L219 20 L171 20 L171 68 L219 68 Z" stroke = "#000000" stroke-width = "1" fill = "none" />    <line x1="195" y1="44" x2="195" y2="20" style="stroke:#000000;stroke-width:1" />
    <line x1="195" y1="44" x2="218" y2="37" style="stroke:#000000;stroke-width:1" />
    <line x1="195" y1="44" x2="209" y2="64" style="stroke:#000000;stroke-width:1" />
    <line x1="195" y1="44" x2="181" y2="64" style="stroke:#000000;stroke-width:1" />
    <line x1="195" y1="44" x2="172" y2="37" style="stroke:#000000;stroke-width:1" />
<circle cx="195" cy = "44" r = "24.183051916579927" stroke = "#000000" stroke-width = "1" fill = "none" />
<circle cx="202" cy = "34" r = "3.022881489572491" stroke = "#000000" stroke-width = "1" fill = "none" />
<circle cx="207" cy = "48" r = "3.022881489572491" stroke = "#000000" stroke-width = "1" fill = "none" />
<circle cx="195" cy = "56" r = "3.022881489572491" stroke = "#000000" stroke-width = "1" fill = "none" />
<circle cx="184" cy = "48" r = "3.022881489572491" stroke = "#000000" stroke-width = "1" fill = "none" />
<circle cx="188" cy = "34" r = "3.022881489572491" stroke = "#000000" stroke-width = "1" fill = "none" />
	<path d = "M308 77 L308 9 L239 9 L239 77 L308 77 Z" stroke = "#000000" stroke-width = "1" fill = "none" />	<path d = "M296 68 L296 20 L248 20 L248 68 L296 68 Z" stroke = "#000000" stroke-width = "1" fill = "none" />	<path d = "M293 50 L251 50 L285 26 L272 65 L259 26 L293 50 Z" stroke = "#000000" stroke-width = "1" fill = "none" />  <path d="M259.327920438825 25.905903594695097           A41.438275922837164 41.438275922837164 0 0 1 284.9381833943348 25.905903594695097" fill = "none" stroke = "#000000" stroke-width = "1" />
  <path d="M264.21904543291623 40.959238467275995           A25.610262955509782 25.610262955509782 0 0 1 280.0470584002436 40.959238467275995" fill = "none" stroke = "#000000" stroke-width = "1" />
  <path d="M267.2419269224887 50.26271106256506           A15.82801296732738 15.82801296732738 0 0 1 277.0241769106711 50.26271106256505" fill = "none" stroke = "#000000" stroke-width = "1" />
  <path d="M269.1101704270074 56.01257333985689           A9.7822499881824 9.7822499881824 0 0 1 275.1559334061524 56.012573339856885" fill = "none" stroke = "#000000" stroke-width = "1" />
	<path d = "M385 77 L385 9 L316 9 L316 77 L385 77 Z" stroke = "#000000" stroke-width = "1" fill = "none" />	<path d = "M373 68 L373 20 L325 20 L325 68 L373 68 Z" stroke = "#000000" stroke-width = "1" fill = "none" />    <line x1="349" y1="44" x2="349" y2="20" style="stroke:#000000;stroke-width:1" />
    <line x1="349" y1="44" x2="370" y2="32" style="stroke:#000000;stroke-width:1" />
    <line x1="349" y1="44" x2="370" y2="56" style="stroke:#000000;stroke-width:1" />
    <line x1="349" y1="44" x2="349" y2="68" style="stroke:#000000;stroke-width:1" />
    <line x1="349" y1="44" x2="328" y2="56" style="stroke:#000000;stroke-width:1" />
<circle cx="349" cy = "44" r = "24.183051916579927" stroke = "#000000" stroke-width = "1" fill = "none" />
<circle cx="343" cy = "34" r = "3.022881489572491" stroke = "#000000" stroke-width = "1" fill = "none" />
<circle cx="355" cy = "34" r = "3.022881489572491" stroke = "#000000" stroke-width = "1" fill = "none" />
<circle cx="361" cy = "44" r = "3.022881489572491" stroke = "#000000" stroke-width = "1" fill = "none" />
<circle cx="355" cy = "55" r = "3.022881489572491" stroke = "#000000" stroke-width = "1" fill = "none" />
<circle cx="343" cy = "55" r = "3.022881489572491" stroke = "#000000" stroke-width = "1" fill = "none" />
    <line x1="349" y1="44" x2="328" y2="32" style="stroke:#000000;stroke-width:1" />
<circle cx="337" cy = "44" r = "3.022881489572491" stroke = "#000000" stroke-width = "1" fill = "none" />
	<path d = "M462 77 L462 9 L393 9 L393 77 L462 77 Z" stroke = "#000000" stroke-width = "1" fill = "none" />	<path d = "M450 68 L450 20 L402 20 L402 68 L450 68 Z" stroke = "#000000" stroke-width = "1" fill = "none" />	<path d = "M426 20 L447 32 L447 56 L426 68 L405 56 L405 32 L426 20 Z" stroke = "#000000" stroke-width = "1" fill = "none" />    <line x1="426" y1="68" x2="426" y2="20" style="stroke:#000000;stroke-width:1" />
    <line x1="426" y1="68" x2="447" y2="32" style="stroke:#000000;stroke-width:1" />
  <path d="M426.0330519165801 26.513725398407615           A41.88627460159235 41.88627460159235 0 0 1 446.97618921737626 32.12542212513012" fill = "none" stroke = "#000000" stroke-width = "1" />
  <path d="M426.03305191658006 44.216948083420036           A24.183051916579927 24.183051916579927 0 0 1 438.12457787487 47.45686269920382" fill = "none" stroke = "#000000" stroke-width = "1" />
  <path d="M426.03305191658006 54.437908466135845           A13.962091533864116 13.962091533864116 0 0 1 433.0140976835121 56.308474041710014" fill = "none" stroke = "#000000" stroke-width = "1" />
  <path d="M426.03305191658 60.338982694473316           A8.061017305526644 8.061017305526644 0 0 1 430.06356056934334 61.418954233067915" fill = "none" stroke = "#000000" stroke-width = "1" />
	<path d = "M539 77 L539 9 L470 9 L470 77 L539 77 Z" stroke = "#000000" stroke-width = "1" fill = "none" />	<path d = "M527 68 L527 20 L479 20 L479 68 L527 68 Z" stroke = "#000000" stroke-width = "1" fill = "none" />    <line x1="503" y1="68" x2="527" y2="44" style="stroke:#000000;stroke-width:1" />
    <line x1="527" y1="44" x2="503" y2="20" style="stroke:#000000;stroke-width:1" />
    <line x1="503" y1="20" x2="479" y2="44" style="stroke:#000000;stroke-width:1" />
    <line x1="479" y1="44" x2="503" y2="68" style="stroke:#000000;stroke-width:1" />
	<path d = "M616 77 L616 9 L547 9 L547 77 L616 77 Z" stroke = "#000000" stroke-width = "1" fill = "none" />	<path d = "M604 68 L604 20 L556 20 L556 68 L604 68 Z" stroke = "#000000" stroke-width = "1" fill = "none" />	<path d = "M604 68 L580 -6 L556 68 L604 68 Z" stroke = "#000000" stroke-width = "1" fill = "none" />    <line x1="604" y1="68" x2="565" y2="40" style="stroke:#000000;stroke-width:1" />
    <line x1="565" y1="40" x2="589" y2="22" style="stroke:#000000;stroke-width:1" />
    <line x1="589" y1="22" x2="574" y2="12" style="stroke:#000000;stroke-width:1" />
	<path d = "M693 77 L693 9 L624 9 L624 77 L693 77 Z" stroke = "#000000" stroke-width = "1" fill = "none" />	<path d = "M681 68 L681 20 L633 20 L633 68 L681 68 Z" stroke = "#000000" stroke-width = "1" fill = "none" />	<path d = "M681 68 L657 27 L633 68 " stroke = "#000000" stroke-width = "1" fill = "none" />    <line x1="657" y1="54" x2="657" y2="27" style="stroke:#000000;stroke-width:1" />
    <line x1="657" y1="54" x2="681" y2="68" style="stroke:#000000;stroke-width:1" />
    <line x1="657" y1="54" x2="633" y2="68" style="stroke:#000000;stroke-width:1" />
	<path d = "M770 77 L770 9 L701 9 L701 77 L770 77 Z" stroke = "#000000" stroke-width = "1" fill = "none" />	<path d = "M758 68 L758 20 L710 20 L710 68 L758 68 Z" stroke = "#000000" stroke-width = "1" fill = "none" />	<path d = "M746 56 L746 44 L734 44 L722 44 L722 56 L734 56 L746 56 Z" stroke = "#000000" stroke-width = "1" fill = "none" />    <line x1="734" y1="56" x2="734" y2="44" style="stroke:#000000;stroke-width:1" />
	<path d = "M846 77 L846 9 L778 9 L778 77 L846 77 Z" stroke = "#000000" stroke-width = "1" fill = "none" />	<path d = "M923 77 L923 9 L855 9 L855 77 L923 77 Z" stroke = "#000000" stroke-width = "1" fill = "none" />	<path d = "M1000 77 L1000 9 L932 9 L932 77 L1000 77 Z" stroke = "#000000" stroke-width = "1" fill = "none" />	<path d = "M180 154 L180 86 L111 86 L111 154 L180 154 Z" stroke = "#000000" stroke-width = "1" fill = "none" />	<path d = "M168 145 L168 97 L120 97 L120 145 L168 145 Z" stroke = "#000000" stroke-width = "1" fill = "none" />	<path d = "M144 133 L144 109 L130 129 L144 133 Z" stroke = "#ffff00" stroke-width = "1" fill = "#ffff00" />	<path d = "M144 133 L144 109 L130 129 L144 133 Z" stroke = "#000000" stroke-width = "1" fill = "none" />	<path d = "M257 154 L257 86 L188 86 L188 154 L257 154 Z" stroke = "#000000" stroke-width = "1" fill = "none" />	<path d = "M245 145 L245 97 L197 97 L197 145 L245 145 Z" stroke = "#000000" stroke-width = "1" fill = "none" />	<path d = "M221 133 L221 109 L235 129 L221 133 Z" stroke = "#ffff00" stroke-width = "1" fill = "#ffff00" />	<path d = "M221 133 L221 109 L235 129 L221 133 Z" stroke = "#000000" stroke-width = "1" fill = "none" />	<path d = "M333 154 L333 86 L265 86 L265 154 L333 154 Z" stroke = "#000000" stroke-width = "1" fill = "none" />	<path d = "M322 145 L322 97 L274 97 L274 145 L322 145 Z" stroke = "#000000" stroke-width = "1" fill = "none" />	<path d = "M298 133 L298 109 L289 121 L298 133 Z" stroke = "#ffff00" stroke-width = "1" fill = "#ffff00" />	<path d = "M298 133 L298 109 L289 121 L298 133 Z" stroke = "#000000" stroke-width = "1" fill = "none" />	<path d = "M410 154 L410 86 L342 86 L342 154 L410 154 Z" stroke = "#000000" stroke-width = "1" fill = "none" />	<path d = "M399 145 L399 97 L351 97 L351 145 L399 145 Z" stroke = "#000000" stroke-width = "1" fill = "none" />	<path d = "M375 133 L375 109 L384 121 L375 133 Z" stroke = "#ffff00" stroke-width = "1" fill = "#ffff00" />	<path d = "M375 133 L375 109 L384 121 L375 133 Z" stroke = "#000000" stroke-width = "1" fill = "none" />	<path d = "M487 154 L487 86 L419 86 L419 154 L487 154 Z" stroke = "#000000" stroke-width = "1" fill = "none" />	<path d = "M476 145 L476 97 L428 97 L428 145 L476 145 Z" stroke = "#000000" stroke-width = "1" fill = "none" />	<path d = "M464 133 L464 109 L443 121 L464 133 Z" stroke = "#ff0000" stroke-width = "1" fill = "#ff0000" />	<path d = "M464 133 L464 109 L443 121 L464 133 Z" stroke = "#000000" stroke-width = "1" fill = "none" />	<path d = "M564 154 L564 86 L496 86 L496 154 L564 154 Z" stroke = "#000000" stroke-width = "1" fill = "none" />	<path d = "M553 145 L553 97 L504 97 L504 145 L553 145 Z" stroke = "#000000" stroke-width = "1" fill = "none" />	<path d = "M529 133 L529 109 L550 121 L529 133 Z" stroke = "#ff0000" stroke-width = "1" fill = "#ff0000" />	<path d = "M529 133 L529 109 L550 121 L529 133 Z" stroke = "#000000" stroke-width = "1" fill = "none" />	<path d = "M641 154 L641 86 L573 86 L573 154 L641 154 Z" stroke = "#000000" stroke-width = "1" fill = "none" />	<path d = "M630 145 L630 97 L581 97 L581 145 L630 145 Z" stroke = "#000000" stroke-width = "1" fill = "none" />	<path d = "M618 133 L618 109 L593 109 L593 133 L618 133 Z" stroke = "#0000ff" stroke-width = "1" fill = "#0000ff" />	<path d = "M618 133 L618 109 L593 109 L593 133 L618 133 Z" stroke = "#000000" stroke-width = "1" fill = "none" />	<path d = "M718 154 L718 86 L650 86 L650 154 L718 154 Z" stroke = "#000000" stroke-width = "1" fill = "none" />	<path d = "M707 145 L707 97 L658 97 L658 145 L707 145 Z" stroke = "#000000" stroke-width = "1" fill = "none" />	<path d = "M695 133 L695 109 L670 109 L695 133 Z" stroke = "#0000ff" stroke-width = "1" fill = "#0000ff" />	<path d = "M695 133 L695 109 L670 109 L695 133 Z" stroke = "#000000" stroke-width = "1" fill = "none" />	<path d = "M795 154 L795 86 L727 86 L727 154 L795 154 Z" stroke = "#000000" stroke-width = "1" fill = "none" />	<path d = "M784 145 L784 97 L735 97 L735 145 L784 145 Z" stroke = "#000000" stroke-width = "1" fill = "none" />	<path d = "M747 133 L747 109 L772 109 L747 133 Z" stroke = "#0000ff" stroke-width = "1" fill = "#0000ff" />	<path d = "M747 133 L747 109 L772 109 L747 133 Z" stroke = "#000000" stroke-width = "1" fill = "none" />	<path d = "M872 154 L872 86 L804 86 L804 154 L872 154 Z" stroke = "#000000" stroke-width = "1" fill = "none" />	<path d = "M861 145 L861 97 L812 97 L812 145 L861 145 Z" stroke = "#000000" stroke-width = "1" fill = "none" />	<path d = "M836 133 L836 109 L822 109 L836 133 Z" stroke = "#ff7900" stroke-width = "1" fill = "#ff7900" />	<path d = "M836 133 L836 109 L822 109 L836 133 Z" stroke = "#000000" stroke-width = "1" fill = "none" />	<path d = "M949 154 L949 86 L881 86 L881 154 L949 154 Z" stroke = "#000000" stroke-width = "1" fill = "none" />	<path d = "M938 145 L938 97 L889 97 L889 145 L938 145 Z" stroke = "#000000" stroke-width = "1" fill = "none" />	<path d = "M913 133 L913 109 L927 109 L913 133 Z" stroke = "#ff7900" stroke-width = "1" fill = "#ff7900" />	<path d = "M913 133 L913 109 L927 109 L913 133 Z" stroke = "#000000" stroke-width = "1" fill = "none" />	<path d = "M1026 154 L1026 86 L958 86 L958 154 L1026 154 Z" stroke = "#000000" stroke-width = "1" fill = "none" />	<path d = "M1015 145 L1015 97 L966 97 L966 145 L1015 145 Z" stroke = "#000000" stroke-width = "1" fill = "none" /><circle cx="990" cy = "121" r = "24.183051916579927" stroke = "#000000" stroke-width = "1" fill = "none" />
<circle cx="990" cy = "121" r = "1" stroke = "#000000" stroke-width = "1" fill = "#000000" />
	<path d = "M1103 154 L1103 86 L1035 86 L1035 154 L1103 154 Z" stroke = "#000000" stroke-width = "1" fill = "none" />	<path d = "M1091 145 L1091 97 L1043 97 L1043 145 L1091 145 Z" stroke = "#000000" stroke-width = "1" fill = "none" />    <line x1="1055" y1="121" x2="1079" y2="121" style="stroke:#000000;stroke-width:1" />
    <line x1="1079" y1="121" x2="1075" y2="125" style="stroke:#000000;stroke-width:1" />
    <line x1="1079" y1="121" x2="1075" y2="117" style="stroke:#000000;stroke-width:1" />
	<path d = "M214 231 L214 162 L145 162 L145 231 L214 231 Z" stroke = "#000000" stroke-width = "1" fill = "none" />	<path d = "M202 222 L202 174 L154 174 L154 222 L202 222 Z" stroke = "#000000" stroke-width = "1" fill = "none" />	<path d = "M184 210 L172 210 L172 198 L166 198 L172 192 L178 186 L184 192 L190 198 L184 198 L184 210 Z" stroke = "#000000" stroke-width = "1" fill = "none" />	<path d = "M291 231 L291 162 L222 162 L222 231 L291 231 Z" stroke = "#000000" stroke-width = "1" fill = "none" />	<path d = "M279 222 L279 174 L231 174 L231 222 L279 222 Z" stroke = "#000000" stroke-width = "1" fill = "none" />	<path d = "M249 186 L261 186 L261 198 L267 198 L261 204 L255 210 L249 204 L243 198 L249 198 L249 186 Z" stroke = "#000000" stroke-width = "1" fill = "none" />	<path d = "M368 231 L368 162 L299 162 L299 231 L368 231 Z" stroke = "#000000" stroke-width = "1" fill = "none" />	<path d = "M356 222 L356 174 L308 174 L308 222 L356 222 Z" stroke = "#000000" stroke-width = "1" fill = "none" />	<path d = "M344 192 L344 204 L332 204 L332 210 L326 204 L320 198 L326 192 L332 186 L332 192 L344 192 Z" stroke = "#000000" stroke-width = "1" fill = "none" />	<path d = "M445 231 L445 162 L376 162 L376 231 L445 231 Z" stroke = "#000000" stroke-width = "1" fill = "none" />	<path d = "M433 222 L433 174 L385 174 L385 222 L433 222 Z" stroke = "#000000" stroke-width = "1" fill = "none" />	<path d = "M397 204 L397 192 L409 192 L409 186 L415 192 L421 198 L415 204 L409 210 L409 204 L397 204 Z" stroke = "#000000" stroke-width = "1" fill = "none" />	<path d = "M522 231 L522 162 L453 162 L453 231 L522 231 Z" stroke = "#000000" stroke-width = "1" fill = "none" />	<path d = "M510 222 L510 174 L462 174 L462 222 L510 222 Z" stroke = "#000000" stroke-width = "1" fill = "none" />  <path d="M477.33305191658013 189.56694808342007           A12.091525958289964 12.091525958289964 0 0 1 494.43305191658015 189.56694808342007" fill = "none" stroke = "#000000" stroke-width = "1" />
  <path d="M477.33305191658013 206.6669480834201           A12.091525958289964 12.091525958289964 0 0 1 477.33305191658013 189.56694808342007" fill = "none" stroke = "#000000" stroke-width = "1" />
  <path d="M494.43305191658015 206.66694808342007           A12.091525958289964 12.091525958289964 0 0 1 477.33305191658013 206.6669480834201" fill = "none" stroke = "#000000" stroke-width = "1" />
	<path d = "M490 218 L494 207 L483 202 " stroke = "#000000" stroke-width = "1" fill = "none" />	<path d = "M599 231 L599 162 L530 162 L530 231 L599 231 Z" stroke = "#000000" stroke-width = "1" fill = "none" />	<path d = "M587 222 L587 174 L539 174 L539 222 L587 222 Z" stroke = "#000000" stroke-width = "1" fill = "none" />  <path d="M571.3830519165799 206.6669480834201           A12.091525958289964 12.091525958289964 0 0 1 554.2830519165799 206.66694808342007" fill = "none" stroke = "#000000" stroke-width = "1" />
  <path d="M554.2830519165799 206.66694808342007           A12.091525958289964 12.091525958289964 0 0 1 554.28305191658 189.56694808342004" fill = "none" stroke = "#000000" stroke-width = "1" />
  <path d="M554.28305191658 189.56694808342004           A12.091525958289964 12.091525958289964 0 0 1 571.38305191658 189.56694808342013" fill = "none" stroke = "#000000" stroke-width = "1" />
	<path d = "M560 194 L571 190 L567 178 " stroke = "#000000" stroke-width = "1" fill = "none" />	<path d = "M675 231 L675 162 L607 162 L607 231 L675 231 Z" stroke = "#000000" stroke-width = "1" fill = "none" />	<path d = "M664 222 L664 174 L616 174 L616 222 L664 222 Z" stroke = "#000000" stroke-width = "1" fill = "none" />    <line x1="652" y1="198" x2="628" y2="198" style="stroke:#000000;stroke-width:1" />
	<path d = "M752 231 L752 162 L684 162 L684 231 L752 231 Z" stroke = "#000000" stroke-width = "1" fill = "none" />	<path d = "M741 222 L741 174 L693 174 L693 222 L741 222 Z" stroke = "#000000" stroke-width = "1" fill = "none" />    <line x1="717" y1="198" x2="717" y2="186" style="stroke:#000000;stroke-width:1" />
    <line x1="717" y1="198" x2="705" y2="198" style="stroke:#000000;stroke-width:1" />
    <line x1="717" y1="198" x2="717" y2="210" style="stroke:#000000;stroke-width:1" />
    <line x1="717" y1="198" x2="729" y2="198" style="stroke:#000000;stroke-width:1" />
	<path d = "M829 231 L829 162 L761 162 L761 231 L829 231 Z" stroke = "#000000" stroke-width = "1" fill = "none" />	<path d = "M906 231 L906 162 L838 162 L838 231 L906 231 Z" stroke = "#000000" stroke-width = "1" fill = "none" />	<path d = "M983 231 L983 162 L915 162 L915 231 L983 231 Z" stroke = "#000000" stroke-width = "1" fill = "none" />	<path d = "M972 222 L972 174 L923 174 L923 222 L972 222 Z" stroke = "#000000" stroke-width = "1" fill = "none" />	<path d = "M942 198 L942 186 L929 186 L929 198 L942 198 Z" stroke = "#000000" stroke-width = "1" fill = "none" />	<path d = "M966 198 L966 186 L954 186 L954 198 L966 198 Z" stroke = "#000000" stroke-width = "1" fill = "none" />    <line x1="942" y1="192" x2="954" y2="192" style="stroke:#000000;stroke-width:1" />
    <line x1="954" y1="192" x2="949" y2="196" style="stroke:#000000;stroke-width:1" />
    <line x1="954" y1="192" x2="949" y2="188" style="stroke:#000000;stroke-width:1" />
	<path d = "M248 308 L248 239 L180 239 L180 308 L248 308 Z" stroke = "#000000" stroke-width = "1" fill = "none" />	<path d = "M236 299 L236 251 L188 251 L188 299 L236 299 Z" stroke = "#000000" stroke-width = "1" fill = "none" />	<path d = "M224 287 L224 263 L200 263 L200 287 L224 287 Z" stroke = "#000000" stroke-width = "3" fill = "#000000" />    <line x1="224" y1="293" x2="200" y2="293" style="stroke:#000000;stroke-width:3" />
    <line x1="194" y1="251" x2="194" y2="257" style="stroke:#000000;stroke-width:1" />
	<path d = "M325 308 L325 239 L257 239 L257 308 L325 308 Z" stroke = "#000000" stroke-width = "1" fill = "none" />	<path d = "M313 299 L313 251 L265 251 L265 299 L313 299 Z" stroke = "#000000" stroke-width = "1" fill = "none" />	<path d = "M301 287 L301 263 L277 263 L277 287 L301 287 Z" stroke = "#ff0000" stroke-width = "1" fill = "#ff0000" />    <line x1="301" y1="293" x2="277" y2="293" style="stroke:#ff0000;stroke-width:1" />
    <line x1="271" y1="251" x2="271" y2="257" style="stroke:#000000;stroke-width:1" />
    <line x1="277" y1="251" x2="277" y2="257" style="stroke:#000000;stroke-width:1" />
	<path d = "M402 308 L402 239 L333 239 L333 308 L402 308 Z" stroke = "#000000" stroke-width = "1" fill = "none" />	<path d = "M390 299 L390 251 L342 251 L342 299 L390 299 Z" stroke = "#000000" stroke-width = "1" fill = "none" />	<path d = "M378 287 L378 263 L354 263 L354 287 L378 287 Z" stroke = "#ff7900" stroke-width = "1" fill = "#ff7900" />    <line x1="378" y1="293" x2="354" y2="293" style="stroke:#ff7900;stroke-width:1" />
    <line x1="348" y1="251" x2="348" y2="257" style="stroke:#000000;stroke-width:1" />
    <line x1="354" y1="251" x2="354" y2="257" style="stroke:#000000;stroke-width:1" />
    <line x1="360" y1="251" x2="360" y2="257" style="stroke:#000000;stroke-width:1" />
	<path d = "M479 308 L479 239 L410 239 L410 308 L479 308 Z" stroke = "#000000" stroke-width = "1" fill = "none" />	<path d = "M467 299 L467 251 L419 251 L419 299 L467 299 Z" stroke = "#000000" stroke-width = "1" fill = "none" />	<path d = "M455 287 L455 263 L431 263 L431 287 L455 287 Z" stroke = "#ffff00" stroke-width = "1" fill = "#ffff00" />    <line x1="455" y1="293" x2="431" y2="293" style="stroke:#ffff00;stroke-width:1" />
    <line x1="425" y1="251" x2="425" y2="257" style="stroke:#000000;stroke-width:1" />
    <line x1="431" y1="251" x2="431" y2="257" style="stroke:#000000;stroke-width:1" />
    <line x1="437" y1="251" x2="437" y2="257" style="stroke:#000000;stroke-width:1" />
    <line x1="443" y1="251" x2="443" y2="257" style="stroke:#000000;stroke-width:1" />
	<path d = "M556 308 L556 239 L487 239 L487 308 L556 308 Z" stroke = "#000000" stroke-width = "1" fill = "none" />	<path d = "M544 299 L544 251 L496 251 L496 299 L544 299 Z" stroke = "#000000" stroke-width = "1" fill = "none" />	<path d = "M532 287 L532 263 L508 263 L508 287 L532 287 Z" stroke = "#008000" stroke-width = "1" fill = "#008000" />    <line x1="532" y1="293" x2="508" y2="293" style="stroke:#008000;stroke-width:1" />
    <line x1="502" y1="251" x2="502" y2="257" style="stroke:#000000;stroke-width:1" />
    <line x1="508" y1="251" x2="508" y2="257" style="stroke:#000000;stroke-width:1" />
    <line x1="514" y1="251" x2="514" y2="257" style="stroke:#000000;stroke-width:1" />
    <line x1="520" y1="251" x2="520" y2="257" style="stroke:#000000;stroke-width:1" />
    <line x1="526" y1="251" x2="526" y2="257" style="stroke:#000000;stroke-width:1" />
	<path d = "M633 308 L633 239 L564 239 L564 308 L633 308 Z" stroke = "#000000" stroke-width = "1" fill = "none" />	<path d = "M621 299 L621 251 L573 251 L573 299 L621 299 Z" stroke = "#000000" stroke-width = "1" fill = "none" />	<path d = "M609 287 L609 263 L585 263 L585 287 L609 287 Z" stroke = "#0000ff" stroke-width = "1" fill = "#0000ff" />    <line x1="609" y1="293" x2="585" y2="293" style="stroke:#0000ff;stroke-width:1" />
    <line x1="579" y1="251" x2="579" y2="257" style="stroke:#000000;stroke-width:1" />
    <line x1="585" y1="251" x2="585" y2="257" style="stroke:#000000;stroke-width:1" />
    <line x1="591" y1="251" x2="591" y2="257" style="stroke:#000000;stroke-width:1" />
    <line x1="597" y1="251" x2="597" y2="257" style="stroke:#000000;stroke-width:1" />
    <line x1="603" y1="251" x2="603" y2="257" style="stroke:#000000;stroke-width:1" />
    <line x1="609" y1="251" x2="609" y2="257" style="stroke:#000000;stroke-width:1" />
	<path d = "M710 308 L710 239 L641 239 L641 308 L710 308 Z" stroke = "#000000" stroke-width = "1" fill = "none" />	<path d = "M698 299 L698 251 L650 251 L650 299 L698 299 Z" stroke = "#000000" stroke-width = "1" fill = "none" />	<path d = "M686 287 L686 263 L662 263 L662 287 L686 287 Z" stroke = "#800080" stroke-width = "1" fill = "#800080" />    <line x1="686" y1="293" x2="662" y2="293" style="stroke:#800080;stroke-width:1" />
    <line x1="656" y1="251" x2="656" y2="257" style="stroke:#000000;stroke-width:1" />
    <line x1="662" y1="251" x2="662" y2="257" style="stroke:#000000;stroke-width:1" />
    <line x1="668" y1="251" x2="668" y2="257" style="stroke:#000000;stroke-width:1" />
    <line x1="674" y1="251" x2="674" y2="257" style="stroke:#000000;stroke-width:1" />
    <line x1="680" y1="251" x2="680" y2="257" style="stroke:#000000;stroke-width:1" />
    <line x1="686" y1="251" x2="686" y2="257" style="stroke:#000000;stroke-width:1" />
    <line x1="692" y1="251" x2="692" y2="257" style="stroke:#000000;stroke-width:1" />
	<path d = "M787 308 L787 239 L718 239 L718 308 L787 308 Z" stroke = "#000000" stroke-width = "1" fill = "none" />	<path d = "M864 308 L864 239 L795 239 L795 308 L864 308 Z" stroke = "#000000" stroke-width = "1" fill = "none" />	<path d = "M940 308 L940 239 L872 239 L872 308 L940 308 Z" stroke = "#000000" stroke-width = "1" fill = "none" />	<path d = "M929 299 L929 251 L881 251 L881 299 L929 299 Z" stroke = "#000000" stroke-width = "1" fill = "none" />	<path d = "M899 275 L899 263 L887 263 L887 275 L899 275 Z" stroke = "#000000" stroke-width = "1" fill = "none" />	<path d = "M923 275 L923 263 L911 263 L911 275 L923 275 Z" stroke = "#000000" stroke-width = "1" fill = "none" />    <line x1="899" y1="269" x2="911" y2="269" style="stroke:#000000;stroke-width:1" />
    <line x1="899" y1="269" x2="903" y2="273" style="stroke:#000000;stroke-width:1" />
    <line x1="899" y1="269" x2="903" y2="265" style="stroke:#000000;stroke-width:1" />
</svg>