<svg width="712.3" height="335.2" viewbox = "0 0 712.3 335.2"  xmlns="http://www.w3.org/2000/svg">
	<path d = "M105 105 L105 21 L21 21 L21 105 L105 105 Z" stroke = "#000000" stroke-width = "2" fill = "none" />	<path d = "M63 84 L63 42 L38 76 L63 84 Z" stroke = "#ffff00" stroke-width = "2" fill = "#ffff00" />	<path d = "M63 84 L63 42 L38 76 L63 84 Z" stroke = "#000000" stroke-width = "2" fill = "none" />	<path d = "M189 105 L189 21 L105 21 L105 105 L189 105 Z" stroke = "#000000" stroke-width = "2" fill = "none" />	<path d = "M147 84 L147 42 L171 76 L147 84 Z" stroke = "#ffff00" stroke-width = "2" fill = "#ffff00" />	<path d = "M147 84 L147 42 L171 76 L147 84 Z" stroke = "#000000" stroke-width = "2" fill = "none" />	<path d = "M272 105 L272 21 L189 21 L189 105 L272 105 Z" stroke = "#000000" stroke-width = "2" fill = "none" />	<path d = "M230 84 L230 42 L215 63 L230 84 Z" stroke = "#ffff00" stroke-width = "2" fill = "#ffff00" />	<path d = "M230 84 L230 42 L215 63 L230 84 Z" stroke = "#000000" stroke-width = "2" fill = "none" />	<path d = "M356 105 L356 21 L272 21 L272 105 L356 105 Z" stroke = "#000000" stroke-width = "2" fill = "none" />	<path d = "M314 84 L314 42 L329 63 L314 84 Z" stroke = "#ffff00" stroke-width = "2" fill = "#ffff00" />	<path d = "M314 84 L314 42 L329 63 L314 84 Z" stroke = "#000000" stroke-width = "2" fill = "none" />	<path d = "M440 105 L440 21 L356 21 L356 105 L440 105 Z" stroke = "#000000" stroke-width = "2" fill = "none" />	<path d = "M419 84 L419 42 L383 63 L419 84 Z" stroke = "#ff0000" stroke-width = "2" fill = "#ff0000" />	<path d = "M419 84 L419 42 L383 63 L419 84 Z" stroke = "#000000" stroke-width = "2" fill = "none" />	<path d = "M524 105 L524 21 L440 21 L440 105 L524 105 Z" stroke = "#000000" stroke-width = "2" fill = "none" />	<path d = "M482 84 L482 42 L518 63 L482 84 Z" stroke = "#ff0000" stroke-width = "2" fill = "#ff0000" />	<path d = "M482 84 L482 42 L518 63 L482 84 Z" stroke = "#000000" stroke-width = "2" fill = "none" />	<path d = "M608 105 L608 21 L524 21 L524 105 L608 105 Z" stroke = "#000000" stroke-width = "2" fill = "none" />	<path d = "M587 84 L587 42 L545 42 L545 84 L587 84 Z" stroke = "#0000ff" stroke-width = "2" fill = "#0000ff" />	<path d = "M587 84 L587 42 L545 42 L545 84 L587 84 Z" stroke = "#000000" stroke-width = "2" fill = "none" />	<path d = "M691 105 L691 21 L608 21 L608 105 L691 105 Z" stroke = "#000000" stroke-width = "2" fill = "none" />	<path d = "M670 84 L670 42 L628 42 L670 84 Z" stroke = "#0000ff" stroke-width = "2" fill = "#0000ff" />	<path d = "M670 84 L670 42 L628 42 L670 84 Z" stroke = "#000000" stroke-width = "2" fill = "none" />	<path d = "M105 210 L105 126 L21 126 L21 210 L105 210 Z" stroke = "#000000" stroke-width = "2" fill = "none" />	<path d = "M42 189 L42 147 L84 147 L42 189 Z" stroke = "#0000ff" stroke-width = "2" fill = "#0000ff" />	<path d = "M42 189 L42 147 L84 147 L42 189 Z" stroke = "#000000" stroke-width = "2" fill = "none" />	<path d = "M189 210 L189 126 L105 126 L105 210 L189 210 Z" stroke = "#000000" stroke-width = "2" fill = "none" />	<path d = "M147 189 L147 147 L122 147 L147 189 Z" stroke = "#ff7900" stroke-width = "2" fill = "#ff7900" />	<path d = "M147 189 L147 147 L122 147 L147 189 Z" stroke = "#000000" stroke-width = "2" fill = "none" />	<path d = "M272 210 L272 126 L189 126 L189 210 L272 210 Z" stroke = "#000000" stroke-width = "2" fill = "none" />	<path d = "M230 189 L230 147 L255 147 L230 189 Z" stroke = "#ff7900" stroke-width = "2" fill = "#ff7900" />	<path d = "M230 189 L230 147 L255 147 L230 189 Z" stroke = "#000000" stroke-width = "2" fill = "none" />	<path d = "M356 210 L356 126 L272 126 L272 210 L356 210 Z" stroke = "#000000" stroke-width = "2" fill = "none" />	<path d = "M350 178 L278 178 L336 136 L314 204 L292 136 L350 178 Z" stroke = "#000000" stroke-width = "2" fill = "none" />  <path d="M292.06359396784484 135.8739479398975           A71.79671809646543 71.79671809646543 0 0 1 336.4364060321551 135.87394793989748" fill = "none" stroke = "#000000" stroke-width = "2" />
  <path d="M300.5380469839224 161.95563247404462           A44.37281206431028 44.37281206431028 0 0 1 327.96195301607753 161.9556324740446" fill = "none" stroke = "#000000" stroke-width = "2" />
  <path d="M305.7755469839224 178.075           A27.423906032155138 27.423906032155138 0 0 1 322.7244530160776 178.075" fill = "none" stroke = "#000000" stroke-width = "2" />
  <path d="M309.0125 188.03731700819174           A16.94890603215514 16.94890603215514 0 0 1 319.4875 188.03731700819174" fill = "none" stroke = "#000000" stroke-width = "2" />
	<path d = "M440 210 L440 126 L356 126 L356 210 L440 210 Z" stroke = "#000000" stroke-width = "2" fill = "none" />	<path d = "M398 126 L434 147 L434 189 L398 210 L362 189 L362 147 L398 126 Z" stroke = "#000000" stroke-width = "2" fill = "none" />    <line x1="398" y1="210" x2="398" y2="126" style="stroke:#000000;stroke-width:2" />
    <line x1="398" y1="210" x2="434" y2="147" style="stroke:#000000;stroke-width:2" />
  <path d="M398.05000000000007 136.92707116286405           A72.57292883713595 72.57292883713595 0 0 1 434.3364644185681 146.64999999999995" fill = "none" stroke = "#000000" stroke-width = "2" />
  <path d="M398.0500000000001 167.6           A41.9 41.9 0 0 1 419.0000000000001 173.21353558143198" fill = "none" stroke = "#000000" stroke-width = "2" />
  <path d="M398.0500000000001 185.30902372095468           A24.19097627904532 24.19097627904532 0 0 1 410.1454881395228 188.54999999999998" fill = "none" stroke = "#000000" stroke-width = "2" />
  <path d="M398.0500000000002 195.53333333333333           A13.966666666666667 13.966666666666667 0 0 1 405.0333333333335 197.40451186047733" fill = "none" stroke = "#000000" stroke-width = "2" />
	<path d = "M524 210 L524 126 L440 126 L440 210 L524 210 Z" stroke = "#000000" stroke-width = "2" fill = "none" />	<path d = "M503 189 L503 147 L461 147 L461 189 L503 189 Z" stroke = "#000000" stroke-width = "2" fill = "none" />    <line x1="461" y1="189" x2="503" y2="147" style="stroke:#000000;stroke-width:2" />
  <path d="M460.9 129.29445173656728           A59.255548263432686 59.255548263432686 0 0 1 502.8 146.64999999999992" fill = "none" stroke = "#000000" stroke-width = "2" />
  <path d="M460.9 146.64999999999995           A41.9 41.9 0 0 1 490.52777413171634 158.9222258682836" fill = "none" stroke = "#000000" stroke-width = "2" />
  <path d="M460.9 158.92222586828362           A29.62777413171634 29.62777413171634 0 0 1 481.85 167.59999999999994" fill = "none" stroke = "#000000" stroke-width = "2" />
  <path d="M460.90000000000003 167.59999999999997           A20.949999999999996 20.949999999999996 0 0 1 475.7138870658582 173.73611293414177" fill = "none" stroke = "#000000" stroke-width = "2" />
  <path d="M460.90000000000003 173.7361129341418           A14.813887065858166 14.813887065858166 0 0 1 471.375 178.07499999999996" fill = "none" stroke = "#000000" stroke-width = "2" />
    <line x1="461" y1="189" x2="461" y2="129" style="stroke:#000000;stroke-width:2" />
	<path d = "M608 210 L608 126 L524 126 L524 210 L608 210 Z" stroke = "#000000" stroke-width = "2" fill = "none" />	<path d = "M691 210 L691 126 L608 126 L608 210 L691 210 Z" stroke = "#000000" stroke-width = "2" fill = "none" />	<path d = "M105 314 L105 230 L21 230 L21 314 L105 314 Z" stroke = "#000000" stroke-width = "2" fill = "none" />	<path d = "M189 314 L189 230 L105 230 L105 314 L189 314 Z" stroke = "#000000" stroke-width = "2" fill = "none" />	<path d = "M272 314 L272 230 L189 230 L189 314 L272 314 Z" stroke = "#000000" stroke-width = "2" fill = "none" />	<path d = "M356 314 L356 230 L272 230 L272 314 L356 314 Z" stroke = "#000000" stroke-width = "2" fill = "none" />	<path d = "M440 314 L440 230 L356 230 L356 314 L440 314 Z" stroke = "#000000" stroke-width = "2" fill = "none" />	<path d = "M524 314 L524 230 L440 230 L440 314 L524 314 Z" stroke = "#000000" stroke-width = "2" fill = "none" />	<path d = "M608 314 L608 230 L524 230 L524 314 L608 314 Z" stroke = "#000000" stroke-width = "2" fill = "none" />	<path d = "M691 314 L691 230 L608 230 L608 314 L691 314 Z" stroke = "#000000" stroke-width = "2" fill = "none" /></svg>