<svg width="712.3" height="335.2" viewbox = "0 0 712.3 335.2"  xmlns="http://www.w3.org/2000/svg">
	<path d = "M42 63 L84 63 L50 87 L63 48 L76 87 L42 63 Z" stroke = "#000000" stroke-width = "3" fill = "#ffff00" />	<path d = "M147 84 L147 42 L122 76 L147 84 Z" stroke = "#000000" stroke-width = "3" fill = "#ffff00" />	<path d = "M230 84 L230 42 L246 63 L230 84 Z" stroke = "#000000" stroke-width = "3" fill = "#ffff00" />	<path d = "M309 58 L309 26 L277 26 L277 58 L309 58 Z" stroke = "#000000" stroke-width = "3" fill = "#0000ff" />	<path d = "M351 58 L351 26 L319 26 L319 58 L351 58 Z" stroke = "#000000" stroke-width = "3" fill = "#0000ff" />	<path d = "M351 100 L351 68 L319 68 L319 100 L351 100 Z" stroke = "#000000" stroke-width = "3" fill = "#0000ff" />	<path d = "M309 100 L309 68 L277 68 L277 100 L309 100 Z" stroke = "#000000" stroke-width = "3" fill = "#0000ff" />	<path d = "M430 95 L430 31 L366 31 L366 95 L430 95 Z" stroke = "#000000" stroke-width = "3" fill = "#0000ff" />	<path d = "M450 95 L482 95 L466 67 L450 95 Z" stroke = "#000000" stroke-width = "3" fill = "#ff0000" />	<path d = "M466 67 L482 39 L498 67 L466 67 Z" stroke = "#000000" stroke-width = "3" fill = "#ff0000" />	<path d = "M498 67 L482 95 L514 95 L498 67 Z" stroke = "#000000" stroke-width = "3" fill = "#ff0000" />	<path d = "M598 95 L598 31 L542 63 L598 95 Z" stroke = "#000000" stroke-width = "3" fill = "#ff0000" />	<path d = "M681 63 L649 31 L681 31 L681 63 Z" stroke = "#000000" stroke-width = "3" fill = "#800080" />	<path d = "M681 63 L681 95 L649 95 L681 63 Z" stroke = "#000000" stroke-width = "3" fill = "#800080" />	<path d = "M649 31 L617 31 L617 63 L649 31 Z" stroke = "#000000" stroke-width = "3" fill = "#800080" />	<path d = "M617 63 L617 95 L649 95 L617 63 Z" stroke = "#000000" stroke-width = "3" fill = "#800080" />	<path d = "M95 200 L95 136 L31 136 L95 200 Z" stroke = "#000000" stroke-width = "3" fill = "#800080" />	<path d = "M147 136 L137 152 L156 152 L147 136 Z" stroke = "#000000" stroke-width = "3" fill = "#ff7900" />	<path d = "M156 152 L174 152 L165 168 L156 152 Z" stroke = "#000000" stroke-width = "3" fill = "#ff7900" />	<path d = "M165 168 L174 184 L156 184 L165 168 Z" stroke = "#000000" stroke-width = "3" fill = "#ff7900" />	<path d = "M156 184 L147 200 L137 184 L156 184 Z" stroke = "#000000" stroke-width = "3" fill = "#ff7900" />	<path d = "M137 184 L119 184 L128 168 L137 184 Z" stroke = "#000000" stroke-width = "3" fill = "#ff7900" />	<path d = "M128 168 L119 152 L137 152 L128 168 Z" stroke = "#000000" stroke-width = "3" fill = "#ff7900" />	<path d = "M262 200 L262 136 L225 136 L262 200 Z" stroke = "#000000" stroke-width = "3" fill = "#ff7900" />	<path d = "M282 200 L282 136 L319 136 L282 200 Z" stroke = "#000000" stroke-width = "3" fill = "#ff7900" />	<path d = "M430 200 L430 136 L412 168 L430 200 Z" stroke = "#000000" stroke-width = "3" fill = "#ff7900" />    <circle cx="482" cy = "189" r = "2.61875" stroke = "#000000" stroke-width = "2" fill = "#000000" />
    <circle cx="482" cy = "147" r = "2.61875" stroke = "#000000" stroke-width = "2" fill = "#000000" />
    <line x1="482" y1="189" x2="482" y2="147" style="stroke:#000000;stroke-width:2" />
    <line x1="482" y1="147" x2="474" y2="154" style="stroke:#000000;stroke-width:2" />
    <line x1="482" y1="147" x2="489" y2="154" style="stroke:#000000;stroke-width:2" />
<circle cx="566" cy = "168" r = "2" stroke = "#000000" stroke-width = "2" fill = "#000000" />
<circle cx="566" cy = "168" r = "32.00875174275881" stroke = "#000000" stroke-width = "2" fill = "none" />
<circle cx="566" cy = "168" r = "2.0005469839224257" stroke = "#000000" stroke-width = "2" fill = "none" />
</svg>